<?xml version="1.0" standalone="no"?><!DOCTYPE svg PUBLIC "-//W3C//DTD SVG 1.1//EN" "http://www.w3.org/Graphics/SVG/1.1/DTD/svg11.dtd"><svg t="1718302501018" class="icon" viewBox="0 0 1024 1024" version="1.1" xmlns="http://www.w3.org/2000/svg" p-id="2677" xmlns:xlink="http://www.w3.org/1999/xlink" width="200" height="200"><path d="M0 0h1024v1024H0z" fill-opacity="0" p-id="2678"></path><path d="M830.122667 144.725333H192A94.549333 94.549333 0 0 0 97.621333 238.933333v497.664a94.549333 94.549333 0 0 0 94.378667 94.549334h638.122667a94.549333 94.549333 0 0 0 94.549333-94.549334V238.933333a94.549333 94.549333 0 0 0-94.549333-94.208zM541.354667 694.613333H332.629333c-19.114667 0-34.133333-2.901333-34.133333-22.016s15.701333-22.016 34.133333-22.016h208.725334c19.114667 0 34.133333 2.730667 34.133333 22.016s-15.018667 22.016-34.133333 22.016z m0-128H332.629333c-19.114667 0-34.133333-2.901333-34.133333-22.016s15.701333-22.016 34.133333-22.016h208.725334c19.114667 0 34.133333 2.730667 34.133333 22.016s-15.018667 22.016-34.133333 22.016z m173.909333-144.384a35.157333 35.157333 0 0 1-34.133333 34.133334H332.629333a34.133333 34.133333 0 0 1-34.133333-34.133334v-44.032a34.133333 34.133333 0 0 1 34.133333-34.133333h347.818667a34.133333 34.133333 0 0 1 34.133333 34.133333z" fill="#CC68FF" p-id="2679"></path><path d="M160.597333 325.802667v-10.581334a18.090667 18.090667 0 0 1 36.010667 0v10.581334a18.090667 18.090667 0 0 1-36.010667 0z m0-69.632v-12.117334a47.616 47.616 0 0 1 47.616-47.786666h93.184a18.090667 18.090667 0 0 1 0 36.010666H208.213333a11.605333 11.605333 0 0 0-11.605333 11.776v11.946667a18.090667 18.090667 0 1 1-36.010667 0z" fill="#FFFFFF" p-id="2680"></path></svg>