<?xml version="1.0" standalone="no"?><!DOCTYPE svg PUBLIC "-//W3C//DTD SVG 1.1//EN" "http://www.w3.org/Graphics/SVG/1.1/DTD/svg11.dtd"><svg t="1718302309566" class="icon" viewBox="0 0 1024 1024" version="1.1" xmlns="http://www.w3.org/2000/svg" p-id="1140" data-darkreader-inline-fill="" xmlns:xlink="http://www.w3.org/1999/xlink" width="200" height="200"><path d="M0 0h1024v1024H0z" fill-opacity="0" p-id="1141"></path><path d="M478.72 124.074667a408.405333 408.405333 0 0 0-242.688 697.173333A415.573333 415.573333 0 0 0 307.2 876.032a92.842667 92.842667 0 0 0 49.152 13.994667h329.386667a104.106667 104.106667 0 0 0 56.32-16.213334A407.893333 407.893333 0 0 0 478.72 124.074667z m253.610667 292.010666l-105.642667 105.642667a28.16 28.16 0 0 0-8.021333 22.357333 93.696 93.696 0 0 1-7.68 47.957334 100.864 100.864 0 0 1-77.824 60.416 99.498667 99.498667 0 0 1-30.208-196.778667 98.304 98.304 0 0 1 39.424 1.194667 27.136 27.136 0 0 0 25.6-6.826667L665.6 351.914667a47.104 47.104 0 0 1 54.272-10.581334 46.250667 46.250667 0 0 1 12.458667 74.752z" fill="#1598FF" opacity=".94" p-id="1142" data-darkreader-inline-fill="" style="--darkreader-inline-fill: #006bbf;"></path><path d="M197.632 370.176l5.461333-9.045333a18.090667 18.090667 0 0 1 24.746667-6.144 17.066667 17.066667 0 0 1 6.144 24.576l-5.461333 9.045333a17.066667 17.066667 0 0 1-24.576 6.314667 18.090667 18.090667 0 0 1-6.314667-24.746667z m35.669333-59.733333l19.797334-33.109334a197.973333 197.973333 0 0 1 30.037333-29.696A223.402667 223.402667 0 0 1 324.266667 222.890667a256 256 0 0 1 28.16-11.946667c21.674667-9.557333 41.472-5.802667 47.957333 4.949333a17.066667 17.066667 0 0 1 1.024 17.066667c-4.778667 9.045333-17.066667 5.973333-42.496 14.165333a177.834667 177.834667 0 0 0-29.184 12.458667 172.202667 172.202667 0 0 0-28.16 19.456 181.418667 181.418667 0 0 0-17.066667 17.066667l-19.626666 33.109333a18.090667 18.090667 0 0 1-31.061334-18.432z" fill="#FFFFFF" p-id="1143" data-darkreader-inline-fill="" style="--darkreader-inline-fill: #181a1b;"></path></svg>