<?xml version="1.0" standalone="no"?><!DOCTYPE svg PUBLIC "-//W3C//DTD SVG 1.1//EN" "http://www.w3.org/Graphics/SVG/1.1/DTD/svg11.dtd"><svg t="1718302252054" class="icon" viewBox="0 0 1024 1024" version="1.1" xmlns="http://www.w3.org/2000/svg" p-id="987" data-darkreader-inline-fill="" xmlns:xlink="http://www.w3.org/1999/xlink" width="200" height="200"><path d="M0 0h1024v1024H0z" fill-opacity="0" p-id="988"></path><path d="M946.858667 558.421333a59.221333 59.221333 0 0 1-11.605334 17.066667 43.349333 43.349333 0 0 1-8.533333 6.485333C768 773.290667 580.266667 887.466667 423.594667 887.466667a280.917333 280.917333 0 0 1-102.4-18.602667A381.269333 381.269333 0 0 1 153.6 733.866667a352.426667 352.426667 0 0 1-47.616-251.904c24.234667-137.728 119.466667-214.869333 170.666667-256C332.8 180.224 449.365333 85.333333 597.333333 114.858667c45.738667 9.045333 156.842667 41.130667 199.338667 147.285333A224.768 224.768 0 0 1 802.133333 409.6c-15.701333 53.76-42.666667 77.141333-107.861333 133.973333l-6.144 5.461334-36.693333 32.256-24.064 21.504c-69.290667 61.610667-107.52 95.402667-173.056 93.354666a162.816 162.816 0 0 1-111.104-46.08 165.205333 165.205333 0 0 1-46.421334-116.053333c1.877333-70.314667 57.002667-119.466667 92.842667-153.6 8.362667-7.68 4.437333-3.242667 51.2-41.813333 40.448-34.133333 49.322667-41.984 68.266667-48.469334a85.333333 85.333333 0 0 1 65.877333-2.730666 73.216 73.216 0 0 1 43.861333 65.024c0 19.626667-25.088 43.008-74.069333 89.088l-52.053333 48.469333a517.12 517.12 0 0 0-45.226667 48.128 9.728 9.728 0 0 0 3.754667 6.314667 10.410667 10.410667 0 0 0 9.557333 1.706666 477.866667 477.866667 0 0 0 68.266667-55.466666l24.405333-21.845334c9.728-8.704 24.917333-22.186667 43.861333-38.4 33.109333-28.16 41.130667-33.109333 49.493334-47.104a96.426667 96.426667 0 0 0 12.629333-65.877333c-9.045333-40.106667-52.394667-64.512-83.456-72.021333-75.434667-17.578667-145.408 44.714667-204.8 95.914666-54.613333 48.298667-104.789333 93.525333-117.418667 165.717334a204.8 204.8 0 0 0 25.6 145.408A232.106667 232.106667 0 0 0 375.466667 729.429333c105.984 41.301333 300.032-71.509333 451.584-262.826666l23.552-13.653334a92.501333 92.501333 0 0 1 77.824 20.650667 89.258667 89.258667 0 0 1 27.306666 53.589333m26.794667 148.650667zM953.344 614.4z" fill="#52E310" p-id="989" data-darkreader-inline-fill="" style="--darkreader-inline-fill: #42b60d;"></path><path d="M453.632 195.072l8.874667-5.632a18.090667 18.090667 0 0 1 18.944 30.72l-9.045334 5.461333a17.92 17.92 0 1 1-18.944-30.549333zM512 158.378667l9.557333-5.802667a74.410667 74.410667 0 0 1 102.4 24.234667l8.874667 14.506666a17.92 17.92 0 0 1-30.72 18.773334l-8.874667-14.336a38.4 38.4 0 0 0-52.736-12.458667l-9.386666 5.802667A18.090667 18.090667 0 0 1 512 158.378667z" fill="#FFFFFF" p-id="990" data-darkreader-inline-fill="" style="--darkreader-inline-fill: #181a1b;"></path></svg>