<?xml version="1.0" standalone="no"?><!DOCTYPE svg PUBLIC "-//W3C//DTD SVG 1.1//EN" "http://www.w3.org/Graphics/SVG/1.1/DTD/svg11.dtd"><svg t="1718302441998" class="icon" viewBox="0 0 1024 1024" version="1.1" xmlns="http://www.w3.org/2000/svg" p-id="2511" xmlns:xlink="http://www.w3.org/1999/xlink" width="200" height="200"><path d="M0 0h1024v1024H0z" fill-opacity="0" p-id="2512"></path><path d="M965.461333 375.466667L757.589333 162.474667A128.853333 128.853333 0 0 0 665.6 123.562667H364.032A128.853333 128.853333 0 0 0 273.066667 162.474667L64.512 375.466667a51.2 51.2 0 0 0 0 71.68l404.138667 413.525333a64.512 64.512 0 0 0 91.306666 1.365333 5.12 5.12 0 0 0 1.365334-1.365333l404.138666-413.696a51.2 51.2 0 0 0 0-71.509333z m-307.2 63.658666l-129.024 131.413334a20.821333 20.821333 0 0 1-29.354666 0l-129.024-131.413334a16.042667 16.042667 0 0 1 0-22.698666l66.389333-68.266667a41.130667 41.130667 0 0 1 29.354667-12.458667H563.2a41.130667 41.130667 0 0 1 29.354667 12.458667l66.389333 68.266667a17.066667 17.066667 0 0 1 0 22.528z" fill="#FBAE17" p-id="2513"></path><path d="M161.792 367.957333a18.090667 18.090667 0 0 1 0-25.6l7.509333-7.509333a17.066667 17.066667 0 0 1 25.429334 0 18.261333 18.261333 0 0 1 0 25.6l-7.509334 7.509333a18.090667 18.090667 0 0 1-25.429333 0z m49.493333-50.005333a18.090667 18.090667 0 0 1 0-25.429333L298.666667 204.8a18.090667 18.090667 0 0 1 25.6 24.917333l-87.381334 88.064a18.090667 18.090667 0 0 1-12.8 5.290667 18.602667 18.602667 0 0 1-12.8-5.12z" fill="#FFFFFF" p-id="2514"></path></svg>